Terminal-Grotesque-var 2.ufo
<glyph name="space" format="1">
  <advance width="290"/>
  <unicode hex="0020"/>
  <outline>
    <contour>
      <point x="131" y="303" type="curve" smooth="yes"/>
      <point x="131" y="317"/>
      <point x="6" y="327"/>
      <point x="101" y="327" type="curve" smooth="yes"/>
      <point x="197" y="327"/>
      <point x="273" y="315"/>
      <point x="273" y="301" type="curve" smooth="yes"/>
      <point x="273" y="286"/>
      <point x="197" y="275"/>
      <point x="101" y="275" type="curve" smooth="yes"/>
      <point x="6" y="275"/>
      <point x="131" y="288"/>
    </contour>
  </outline>
</glyph>
<glyph name="numbersign" format="2">
  <advance width="752"/>
  <unicode hex="0023"/>
  <outline>
    <contour>
      <point x="438" y="224" type="line"/>
      <point x="438" y="320" type="line"/>
      <point x="470" y="320" type="line"/>
      <point x="470" y="416" type="line"/>
      <point x="310" y="416" type="line"/>
      <point x="310" y="320" type="line"/>
      <point x="278" y="320" type="line"/>
      <point x="278" y="224" type="line"/>
    </contour>
    <contour>
      <point x="86" y="0" type="line"/>
      <point x="86" y="64" type="line"/>
      <point x="118" y="64" type="line"/>
      <point x="118" y="160" type="line"/>
      <point x="22" y="160" type="line"/>
      <point x="22" y="224" type="line"/>
      <point x="182" y="224" type="line"/>
      <point x="182" y="320" type="line"/>
      <point x="214" y="320" type="line"/>
      <point x="214" y="416" type="line"/>
      <point x="118" y="416" type="line"/>
      <point x="118" y="480" type="line"/>
      <point x="278" y="480" type="line"/>
      <point x="278" y="576" type="line"/>
      <point x="310" y="576" type="line"/>
      <point x="310" y="640" type="line"/>
      <point x="406" y="640" type="line"/>
      <point x="406" y="576" type="line"/>
      <point x="374" y="576" type="line"/>
      <point x="374" y="480" type="line"/>
      <point x="534" y="480" type="line"/>
      <point x="534" y="576" type="line"/>
      <point x="566" y="576" type="line"/>
      <point x="566" y="640" type="line"/>
      <point x="662" y="640" type="line"/>
      <point x="662" y="576" type="line"/>
      <point x="630" y="576" type="line"/>
      <point x="630" y="480" type="line"/>
      <point x="726" y="480" type="line"/>
      <point x="726" y="416" type="line"/>
      <point x="566" y="416" type="line"/>
      <point x="566" y="320" type="line"/>
      <point x="534" y="320" type="line"/>
      <point x="534" y="224" type="line"/>
      <point x="630" y="224" type="line"/>
      <point x="630" y="160" type="line"/>
      <point x="470" y="160" type="line"/>
      <point x="470" y="64" type="line"/>
      <point x="438" y="64" type="line"/>
      <point x="438" y="0" type="line"/>
      <point x="342" y="0" type="line"/>
      <point x="342" y="64" type="line"/>
      <point x="374" y="64" type="line"/>
      <point x="374" y="160" type="line"/>
      <point x="214" y="160" type="line"/>
      <point x="214" y="64" type="line"/>
      <point x="182" y="64" type="line"/>
      <point x="182" y="0" type="line"/>
    </contour>
  </outline>
</glyph>
<glyph name="plus" format="2">
  <advance width="524"/>
  <unicode hex="002B"/>
  <outline>
    <contour>
      <point x="207" y="32" type="line"/>
      <point x="207" y="224" type="line"/>
      <point x="15" y="224" type="line"/>
      <point x="15" y="320" type="line"/>
      <point x="207" y="320" type="line"/>
      <point x="207" y="512" type="line"/>
      <point x="303" y="512" type="line"/>
      <point x="303" y="320" type="line"/>
      <point x="495" y="320" type="line"/>
      <point x="495" y="224" type="line"/>
      <point x="303" y="224" type="line"/>
      <point x="303" y="32" type="line"/>
    </contour>
  </outline>
</glyph>
<glyph name="hyphen" format="2">
  <advance width="422"/>
  <unicode hex="002D"/>
  <outline>
    <contour>
      <point x="387" y="224" type="line"/>
      <point x="35" y="224" type="line"/>
      <point x="35" y="320" type="line"/>
      <point x="387" y="320" type="line"/>
    </contour>
  </outline>
</glyph>
<glyph name="zero" format="2">
  <advance width="575"/>
  <unicode hex="0030"/>
  <outline>
    <contour>
      <point x="367" y="96" type="line"/>
      <point x="367" y="128" type="line"/>
      <point x="399" y="128" type="line"/>
      <point x="399" y="224" type="line"/>
      <point x="431" y="224" type="line"/>
      <point x="431" y="416" type="line"/>
      <point x="399" y="416" type="line"/>
      <point x="399" y="512" type="line"/>
      <point x="367" y="512" type="line"/>
      <point x="367" y="544" type="line"/>
      <point x="207" y="544" type="line"/>
      <point x="207" y="512" type="line"/>
      <point x="175" y="512" type="line"/>
      <point x="175" y="416" type="line"/>
      <point x="143" y="416" type="line"/>
      <point x="143" y="224" type="line"/>
      <point x="175" y="224" type="line"/>
      <point x="175" y="128" type="line"/>
      <point x="207" y="128" type="line"/>
      <point x="207" y="96" type="line"/>
    </contour>
    <contour>
      <point x="175" y="0" type="line"/>
      <point x="175" y="32" type="line"/>
      <point x="111" y="32" type="line"/>
      <point x="111" y="96" type="line"/>
      <point x="79" y="96" type="line"/>
      <point x="79" y="192" type="line"/>
      <point x="47" y="192" type="line"/>
      <point x="47" y="448" type="line"/>
      <point x="79" y="448" type="line"/>
      <point x="79" y="544" type="line"/>
      <point x="111" y="544" type="line"/>
      <point x="111" y="608" type="line"/>
      <point x="175" y="608" type="line"/>
      <point x="175" y="640" type="line"/>
      <point x="399" y="640" type="line"/>
      <point x="399" y="608" type="line"/>
      <point x="463" y="608" type="line"/>
      <point x="463" y="544" type="line"/>
      <point x="495" y="544" type="line"/>
      <point x="495" y="448" type="line"/>
      <point x="527" y="448" type="line"/>
      <point x="527" y="192" type="line"/>
      <point x="495" y="192" type="line"/>
      <point x="495" y="96" type="line"/>
      <point x="463" y="96" type="line"/>
      <point x="463" y="32" type="line"/>
      <point x="399" y="32" type="line"/>
      <point x="399" y="0" type="line"/>
    </contour>
  </outline>
</glyph>
<glyph name="one" format="2">
  <advance width="281"/>
  <unicode hex="0031"/>
  <outline>
    <contour>
      <point x="126" y="0" type="line"/>
      <point x="126" y="480" type="line"/>
      <point x="30" y="480" type="line"/>
      <point x="30" y="544" type="line"/>
      <point x="62" y="544" type="line"/>
      <point x="62" y="576" type="line"/>
      <point x="94" y="576" type="line"/>
      <point x="94" y="608" type="line"/>
      <point x="126" y="608" type="line"/>
      <point x="126" y="640" type="line"/>
      <point x="222" y="640" type="line"/>
      <point x="222" y="0" type="line"/>
    </contour>
  </outline>
</glyph>
<glyph name="nine" format="2">
  <advance width="549"/>
  <unicode hex="0039"/>
  <outline>
    <contour>
      <point x="341" y="352" type="line"/>
      <point x="341" y="384" type="line"/>
      <point x="373" y="384" type="line"/>
      <point x="373" y="512" type="line"/>
      <point x="341" y="512" type="line"/>
      <point x="341" y="544" type="line"/>
      <point x="181" y="544" type="line"/>
      <point x="181" y="512" type="line"/>
      <point x="149" y="512" type="line"/>
      <point x="149" y="384" type="line"/>
      <point x="181" y="384" type="line"/>
      <point x="181" y="352" type="line"/>
    </contour>
    <contour>
      <point x="149" y="0" type="line"/>
      <point x="149" y="32" type="line"/>
      <point x="85" y="32" type="line"/>
      <point x="85" y="96" type="line"/>
      <point x="53" y="96" type="line"/>
      <point x="53" y="160" type="line"/>
      <point x="149" y="160" type="line"/>
      <point x="149" y="128" type="line"/>
      <point x="181" y="128" type="line"/>
      <point x="181" y="96" type="line"/>
      <point x="341" y="96" type="line"/>
      <point x="341" y="128" type="line"/>
      <point x="373" y="128" type="line"/>
      <point x="373" y="224" type="line"/>
      <point x="405" y="224" type="line"/>
      <point x="405" y="320" type="line"/>
      <point x="373" y="320" type="line"/>
      <point x="373" y="288" type="line"/>
      <point x="341" y="288" type="line"/>
      <point x="341" y="256" type="line"/>
      <point x="117" y="256" type="line"/>
      <point x="117" y="288" type="line"/>
      <point x="85" y="288" type="line"/>
      <point x="85" y="352" type="line"/>
      <point x="53" y="352" type="line"/>
      <point x="53" y="512" type="line"/>
      <point x="85" y="512" type="line"/>
      <point x="85" y="608" type="line"/>
      <point x="149" y="608" type="line"/>
      <point x="149" y="640" type="line"/>
      <point x="373" y="640" type="line"/>
      <point x="373" y="608" type="line"/>
      <point x="437" y="608" type="line"/>
      <point x="437" y="544" type="line"/>
      <point x="469" y="544" type="line"/>
      <point x="469" y="448" type="line"/>
      <point x="501" y="448" type="line"/>
      <point x="501" y="192" type="line"/>
      <point x="469" y="192" type="line"/>
      <point x="469" y="96" type="line"/>
      <point x="437" y="96" type="line"/>
      <point x="437" y="32" type="line"/>
      <point x="373" y="32" type="line"/>
      <point x="373" y="0" type="line"/>
    </contour>
  </outline>
</glyph>
<glyph name="C" format="2">
  <advance width="661"/>
  <unicode hex="0043"/>
  <outline>
    <contour>
      <point x="268" y="0" type="line"/>
      <point x="268" y="32" type="line"/>
      <point x="172" y="32" type="line"/>
      <point x="172" y="64" type="line"/>
      <point x="140" y="64" type="line"/>
      <point x="140" y="96" type="line"/>
      <point x="108" y="96" type="line"/>
      <point x="108" y="128" type="line"/>
      <point x="76" y="128" type="line"/>
      <point x="76" y="192" type="line"/>
      <point x="44" y="192" type="line"/>
      <point x="44" y="448" type="line"/>
      <point x="76" y="448" type="line"/>
      <point x="76" y="512" type="line"/>
      <point x="108" y="512" type="line"/>
      <point x="108" y="544" type="line"/>
      <point x="140" y="544" type="line"/>
      <point x="140" y="576" type="line"/>
      <point x="172" y="576" type="line"/>
      <point x="172" y="608" type="line"/>
      <point x="268" y="608" type="line"/>
      <point x="268" y="640" type="line"/>
      <point x="428" y="640" type="line"/>
      <point x="428" y="608" type="line"/>
      <point x="524" y="608" type="line"/>
      <point x="524" y="576" type="line"/>
      <point x="556" y="576" type="line"/>
      <point x="556" y="512" type="line"/>
      <point x="588" y="512" type="line"/>
      <point x="588" y="480" type="line"/>
      <point x="620" y="480" type="line"/>
      <point x="620" y="448" type="line"/>
      <point x="492" y="448" type="line"/>
      <point x="492" y="480" type="line"/>
      <point x="460" y="480" type="line"/>
      <point x="460" y="512" type="line"/>
      <point x="396" y="512" type="line"/>
      <point x="396" y="544" type="line"/>
      <point x="300" y="544" type="line"/>
      <point x="300" y="512" type="line"/>
      <point x="236" y="512" type="line"/>
      <point x="236" y="480" type="line"/>
      <point x="204" y="480" type="line"/>
      <point x="204" y="448" type="line"/>
      <point x="172" y="448" type="line"/>
      <point x="172" y="384" type="line"/>
      <point x="140" y="384" type="line"/>
      <point x="140" y="256" type="line"/>
      <point x="172" y="256" type="line"/>
      <point x="172" y="192" type="line"/>
      <point x="204" y="192" type="line"/>
      <point x="204" y="160" type="line"/>
      <point x="236" y="160" type="line"/>
      <point x="236" y="128" type="line"/>
      <point x="300" y="128" type="line"/>
      <point x="300" y="96" type="line"/>
      <point x="396" y="96" type="line"/>
      <point x="396" y="128" type="line"/>
      <point x="460" y="128" type="line"/>
      <point x="460" y="160" type="line"/>
      <point x="492" y="160" type="line"/>
      <point x="492" y="192" type="line"/>
      <point x="620" y="192" type="line"/>
      <point x="620" y="160" type="line"/>
      <point x="588" y="160" type="line"/>
      <point x="588" y="128" type="line"/>
      <point x="556" y="128" type="line"/>
      <point x="556" y="64" type="line"/>
      <point x="524" y="64" type="line"/>
      <point x="524" y="32" type="line"/>
      <point x="428" y="32" type="line"/>
      <point x="428" y="0" type="line"/>
    </contour>
  </outline>
</glyph>
<glyph name="N" format="2">
  <advance width="628"/>
  <unicode hex="004E"/>
  <outline>
    <contour>
      <point x="57" y="0" type="line"/>
      <point x="57" y="640" type="line"/>
      <point x="217" y="640" type="line"/>
      <point x="217" y="576" type="line"/>
      <point x="249" y="576" type="line"/>
      <point x="249" y="512" type="line"/>
      <point x="281" y="512" type="line"/>
      <point x="281" y="448" type="line"/>
      <point x="313" y="448" type="line"/>
      <point x="313" y="384" type="line"/>
      <point x="345" y="384" type="line"/>
      <point x="345" y="320" type="line"/>
      <point x="377" y="320" type="line"/>
      <point x="377" y="256" type="line"/>
      <point x="409" y="256" type="line"/>
      <point x="409" y="192" type="line"/>
      <point x="441" y="192" type="line"/>
      <point x="441" y="128" type="line"/>
      <point x="473" y="128" type="line"/>
      <point x="473" y="640" type="line"/>
      <point x="569" y="640" type="line"/>
      <point x="569" y="0" type="line"/>
      <point x="409" y="0" type="line"/>
      <point x="409" y="64" type="line"/>
      <point x="377" y="64" type="line"/>
      <point x="377" y="128" type="line"/>
      <point x="345" y="128" type="line"/>
      <point x="345" y="192" type="line"/>
      <point x="313" y="192" type="line"/>
      <point x="313" y="256" type="line"/>
      <point x="281" y="256" type="line"/>
      <point x="281" y="320" type="line"/>
      <point x="249" y="320" type="line"/>
      <point x="249" y="384" type="line"/>
      <point x="217" y="384" type="line"/>
      <point x="217" y="448" type="line"/>
      <point x="185" y="448" type="line"/>
      <point x="185" y="512" type="line"/>
      <point x="153" y="512" type="line"/>
      <point x="153" y="0" type="line"/>
    </contour>
  </outline>
</glyph>
<glyph name="W" format="2">
  <advance width="826"/>
  <unicode hex="0057"/>
  <outline>
    <contour>
      <point x="191" y="0" type="line"/>
      <point x="191" y="64" type="line"/>
      <point x="159" y="64" type="line"/>
      <point x="159" y="160" type="line"/>
      <point x="127" y="160" type="line"/>
      <point x="127" y="288" type="line"/>
      <point x="95" y="288" type="line"/>
      <point x="95" y="416" type="line"/>
      <point x="63" y="416" type="line"/>
      <point x="63" y="512" type="line"/>
      <point x="31" y="512" type="line"/>
      <point x="31" y="640" type="line"/>
      <point x="127" y="640" type="line"/>
      <point x="127" y="512" type="line"/>
      <point x="159" y="512" type="line"/>
      <point x="159" y="384" type="line"/>
      <point x="191" y="384" type="line"/>
      <point x="191" y="288" type="line"/>
      <point x="223" y="288" type="line"/>
      <point x="223" y="160" type="line"/>
      <point x="255" y="160" type="line"/>
      <point x="255" y="288" type="line"/>
      <point x="287" y="288" type="line"/>
      <point x="287" y="384" type="line"/>
      <point x="319" y="384" type="line"/>
      <point x="319" y="512" type="line"/>
      <point x="351" y="512" type="line"/>
      <point x="351" y="640" type="line"/>
      <point x="447" y="640" type="line"/>
      <point x="447" y="512" type="line"/>
      <point x="479" y="512" type="line"/>
      <point x="479" y="384" type="line"/>
      <point x="511" y="384" type="line"/>
      <point x="511" y="288" type="line"/>
      <point x="543" y="288" type="line"/>
      <point x="543" y="160" type="line"/>
      <point x="575" y="160" type="line"/>
      <point x="575" y="288" type="line"/>
      <point x="607" y="288" type="line"/>
      <point x="607" y="384" type="line"/>
      <point x="639" y="384" type="line"/>
      <point x="639" y="512" type="line"/>
      <point x="671" y="512" type="line"/>
      <point x="671" y="640" type="line"/>
      <point x="767" y="640" type="line"/>
      <point x="767" y="512" type="line"/>
      <point x="735" y="512" type="line"/>
      <point x="735" y="416" type="line"/>
      <point x="703" y="416" type="line"/>
      <point x="703" y="288" type="line"/>
      <point x="671" y="288" type="line"/>
      <point x="671" y="160" type="line"/>
      <point x="639" y="160" type="line"/>
      <point x="639" y="64" type="line"/>
      <point x="607" y="64" type="line"/>
      <point x="607" y="0" type="line"/>
      <point x="511" y="0" type="line"/>
      <point x="511" y="64" type="line"/>
      <point x="479" y="64" type="line"/>
      <point x="479" y="160" type="line"/>
      <point x="447" y="160" type="line"/>
      <point x="447" y="288" type="line"/>
      <point x="415" y="288" type="line"/>
      <point x="415" y="416" type="line"/>
      <point x="383" y="416" type="line"/>
      <point x="383" y="288" type="line"/>
      <point x="351" y="288" type="line"/>
      <point x="351" y="160" type="line"/>
      <point x="319" y="160" type="line"/>
      <point x="319" y="64" type="line"/>
      <point x="287" y="64" type="line"/>
      <point x="287" y="0" type="line"/>
    </contour>
  </outline>
</glyph>
<glyph name="l" format="2">
  <advance width="212"/>
  <unicode hex="006C"/>
  <outline>
    <contour>
      <point x="57" y="0" type="line"/>
      <point x="57" y="640" type="line"/>
      <point x="153" y="640" type="line"/>
      <point x="153" y="0" type="line"/>
    </contour>
  </outline>
</glyph>
<glyph name="v" format="2">
  <advance width="492"/>
  <unicode hex="0076"/>
  <outline>
    <contour>
      <point x="166" y="0" type="line"/>
      <point x="166" y="64" type="line"/>
      <point x="134" y="64" type="line"/>
      <point x="134" y="160" type="line"/>
      <point x="102" y="160" type="line"/>
      <point x="102" y="288" type="line"/>
      <point x="70" y="288" type="line"/>
      <point x="70" y="384" type="line"/>
      <point x="38" y="384" type="line"/>
      <point x="38" y="480" type="line"/>
      <point x="134" y="480" type="line"/>
      <point x="134" y="416" type="line"/>
      <point x="166" y="416" type="line"/>
      <point x="166" y="288" type="line"/>
      <point x="198" y="288" type="line"/>
      <point x="198" y="192" type="line"/>
      <point x="230" y="192" type="line"/>
      <point x="230" y="96" type="line"/>
      <point x="262" y="96" type="line"/>
      <point x="262" y="192" type="line"/>
      <point x="294" y="192" type="line"/>
      <point x="294" y="288" type="line"/>
      <point x="326" y="288" type="line"/>
      <point x="326" y="416" type="line"/>
      <point x="358" y="416" type="line"/>
      <point x="358" y="480" type="line"/>
      <point x="454" y="480" type="line"/>
      <point x="454" y="384" type="line"/>
      <point x="422" y="384" type="line"/>
      <point x="422" y="288" type="line"/>
      <point x="390" y="288" type="line"/>
      <point x="390" y="160" type="line"/>
      <point x="358" y="160" type="line"/>
      <point x="358" y="64" type="line"/>
      <point x="326" y="64" type="line"/>
      <point x="326" y="0" type="line"/>
    </contour>
  </outline>
</glyph>
<glyph name="w" format="2">
  <advance width="684"/>
  <unicode hex="0077"/>
  <outline>
    <contour>
      <point x="390" y="288" type="line"/>
      <point x="390" y="192" type="line"/>
      <point x="422" y="192" type="line"/>
      <point x="422" y="96" type="line"/>
      <point x="454" y="96" type="line"/>
      <point x="454" y="192" type="line"/>
      <point x="486" y="192" type="line"/>
      <point x="486" y="288" type="line"/>
      <point x="518" y="288" type="line"/>
      <point x="518" y="384" type="line"/>
      <point x="550" y="384" type="line"/>
      <point x="550" y="480" type="line"/>
      <point x="646" y="480" type="line"/>
      <point x="646" y="384" type="line"/>
      <point x="614" y="384" type="line"/>
      <point x="614" y="288" type="line"/>
      <point x="582" y="288" type="line"/>
      <point x="582" y="160" type="line"/>
      <point x="550" y="160" type="line"/>
      <point x="550" y="64" type="line"/>
      <point x="518" y="64" type="line"/>
      <point x="518" y="0" type="line"/>
      <point x="390" y="0" type="line"/>
      <point x="390" y="64" type="line"/>
      <point x="358" y="64" type="line"/>
      <point x="358" y="160" type="line"/>
      <point x="326" y="160" type="line"/>
      <point x="326" y="64" type="line"/>
      <point x="294" y="64" type="line"/>
      <point x="294" y="0" type="line"/>
      <point x="166" y="0" type="line"/>
      <point x="166" y="64" type="line"/>
      <point x="134" y="64" type="line"/>
      <point x="134" y="160" type="line"/>
      <point x="102" y="160" type="line"/>
      <point x="102" y="288" type="line"/>
      <point x="70" y="288" type="line"/>
      <point x="70" y="384" type="line"/>
      <point x="38" y="384" type="line"/>
      <point x="38" y="480" type="line"/>
      <point x="134" y="480" type="line"/>
      <point x="134" y="384" type="line"/>
      <point x="166" y="384" type="line"/>
      <point x="166" y="288" type="line"/>
      <point x="198" y="288" type="line"/>
      <point x="198" y="192" type="line"/>
      <point x="230" y="192" type="line"/>
      <point x="230" y="96" type="line"/>
      <point x="262" y="96" type="line"/>
      <point x="262" y="192" type="line"/>
      <point x="294" y="192" type="line"/>
      <point x="294" y="288" type="line"/>
      <point x="326" y="288" type="line"/>
      <point x="326" y="352" type="line"/>
      <point x="358" y="352" type="line"/>
      <point x="358" y="288" type="line"/>
    </contour>
  </outline>
</glyph>
<glyph name="exclamdown" format="2">
  <advance width="212"/>
  <unicode hex="00A1"/>
  <outline>
    <contour>
      <point x="57" y="0" type="line"/>
      <point x="57" y="448" type="line"/>
      <point x="153" y="448" type="line"/>
      <point x="153" y="0" type="line"/>
    </contour>
    <contour>
      <point x="57" y="544" type="line"/>
      <point x="57" y="640" type="line"/>
      <point x="153" y="640" type="line"/>
      <point x="153" y="544" type="line"/>
    </contour>
  </outline>
</glyph>
<glyph name="dieresis" format="2">
  <advance width="386"/>
  <unicode hex="00A8"/>
  <outline>
    <contour>
      <point x="33" y="704" type="line"/>
      <point x="33" y="800" type="line"/>
      <point x="129" y="800" type="line"/>
      <point x="129" y="704" type="line"/>
    </contour>
    <contour>
      <point x="225" y="704" type="line"/>
      <point x="225" y="800" type="line"/>
      <point x="321" y="800" type="line"/>
      <point x="321" y="704" type="line"/>
    </contour>
  </outline>
</glyph>
<glyph name="plusminus" format="2">
  <advance width="568"/>
  <unicode hex="00B1"/>
  <outline>
    <contour>
      <point x="40" y="0" type="line"/>
      <point x="40" y="96" type="line"/>
      <point x="520" y="96" type="line"/>
      <point x="520" y="0" type="line"/>
    </contour>
    <contour>
      <point x="232" y="128" type="line"/>
      <point x="232" y="320" type="line"/>
      <point x="40" y="320" type="line"/>
      <point x="40" y="416" type="line"/>
      <point x="232" y="416" type="line"/>
      <point x="232" y="608" type="line"/>
      <point x="328" y="608" type="line"/>
      <point x="328" y="416" type="line"/>
      <point x="520" y="416" type="line"/>
      <point x="520" y="320" type="line"/>
      <point x="328" y="320" type="line"/>
      <point x="328" y="128" type="line"/>
    </contour>
  </outline>
</glyph>
<glyph name="paragraph" format="2">
  <advance width="518"/>
  <unicode hex="00B6"/>
  <outline>
    <contour>
      <point x="229" y="-160" type="line"/>
      <point x="229" y="288" type="line"/>
      <point x="165" y="288" type="line"/>
      <point x="165" y="320" type="line"/>
      <point x="101" y="320" type="line"/>
      <point x="101" y="352" type="line"/>
      <point x="69" y="352" type="line"/>
      <point x="69" y="384" type="line"/>
      <point x="37" y="384" type="line"/>
      <point x="37" y="576" type="line"/>
      <point x="69" y="576" type="line"/>
      <point x="69" y="608" type="line"/>
      <point x="101" y="608" type="line"/>
      <point x="101" y="640" type="line"/>
      <point x="165" y="640" type="line"/>
      <point x="165" y="672" type="line"/>
      <point x="453" y="672" type="line"/>
      <point x="453" y="-160" type="line"/>
      <point x="389" y="-160" type="line"/>
      <point x="389" y="640" type="line"/>
      <point x="293" y="640" type="line"/>
      <point x="293" y="-160" type="line"/>
    </contour>
  </outline>
</glyph>
<glyph name="Aacute" format="2">
  <advance width="672"/>
  <unicode hex="00C1"/>
  <outline>
    <contour>
      <point x="432" y="288" type="line"/>
      <point x="432" y="320" type="line"/>
      <point x="400" y="320" type="line"/>
      <point x="400" y="384" type="line"/>
      <point x="368" y="384" type="line"/>
      <point x="368" y="448" type="line"/>
      <point x="336" y="448" type="line"/>
      <point x="336" y="512" type="line"/>
      <point x="304" y="512" type="line"/>
      <point x="304" y="448" type="line"/>
      <point x="272" y="448" type="line"/>
      <point x="272" y="384" type="line"/>
      <point x="240" y="384" type="line"/>
      <point x="240" y="320" type="line"/>
      <point x="208" y="320" type="line"/>
      <point x="208" y="288" type="line"/>
    </contour>
    <contour>
      <point x="16" y="0" type="line"/>
      <point x="16" y="96" type="line"/>
      <point x="48" y="96" type="line"/>
      <point x="48" y="160" type="line"/>
      <point x="80" y="160" type="line"/>
      <point x="80" y="256" type="line"/>
      <point x="112" y="256" type="line"/>
      <point x="112" y="320" type="line"/>
      <point x="144" y="320" type="line"/>
      <point x="144" y="384" type="line"/>
      <point x="176" y="384" type="line"/>
      <point x="176" y="448" type="line"/>
      <point x="208" y="448" type="line"/>
      <point x="208" y="512" type="line"/>
      <point x="240" y="512" type="line"/>
      <point x="240" y="576" type="line"/>
      <point x="272" y="576" type="line"/>
      <point x="272" y="640" type="line"/>
      <point x="368" y="640" type="line"/>
      <point x="368" y="576" type="line"/>
      <point x="400" y="576" type="line"/>
      <point x="400" y="512" type="line"/>
      <point x="432" y="512" type="line"/>
      <point x="432" y="448" type="line"/>
      <point x="464" y="448" type="line"/>
      <point x="464" y="384" type="line"/>
      <point x="496" y="384" type="line"/>
      <point x="496" y="320" type="line"/>
      <point x="528" y="320" type="line"/>
      <point x="528" y="256" type="line"/>
      <point x="560" y="256" type="line"/>
      <point x="560" y="160" type="line"/>
      <point x="592" y="160" type="line"/>
      <point x="592" y="96" type="line"/>
      <point x="624" y="96" type="line"/>
      <point x="624" y="0" type="line"/>
      <point x="528" y="0" type="line"/>
      <point x="528" y="64" type="line"/>
      <point x="496" y="64" type="line"/>
      <point x="496" y="128" type="line"/>
      <point x="464" y="128" type="line"/>
      <point x="464" y="192" type="line"/>
      <point x="176" y="192" type="line"/>
      <point x="176" y="128" type="line"/>
      <point x="144" y="128" type="line"/>
      <point x="144" y="64" type="line"/>
      <point x="112" y="64" type="line"/>
      <point x="112" y="0" type="line"/>
    </contour>
    <contour>
      <point x="272" y="704" type="line"/>
      <point x="272" y="736" type="line"/>
      <point x="304" y="736" type="line"/>
      <point x="304" y="768" type="line"/>
      <point x="336" y="768" type="line"/>
      <point x="336" y="800" type="line"/>
      <point x="432" y="800" type="line"/>
      <point x="432" y="768" type="line"/>
      <point x="400" y="768" type="line"/>
      <point x="400" y="736" type="line"/>
      <point x="368" y="736" type="line"/>
      <point x="368" y="704" type="line"/>
    </contour>
  </outline>
</glyph>
<glyph name="Acircumflex" format="2">
  <advance width="679"/>
  <unicode hex="00C2"/>
  <outline>
    <contour>
      <point x="439" y="288" type="line"/>
      <point x="439" y="320" type="line"/>
      <point x="407" y="320" type="line"/>
      <point x="407" y="384" type="line"/>
      <point x="375" y="384" type="line"/>
      <point x="375" y="448" type="line"/>
      <point x="343" y="448" type="line"/>
      <point x="343" y="512" type="line"/>
      <point x="311" y="512" type="line"/>
      <point x="311" y="448" type="line"/>
      <point x="279" y="448" type="line"/>
      <point x="279" y="384" type="line"/>
      <point x="247" y="384" type="line"/>
      <point x="247" y="320" type="line"/>
      <point x="215" y="320" type="line"/>
      <point x="215" y="288" type="line"/>
    </contour>
    <contour>
      <point x="23" y="0" type="line"/>
      <point x="23" y="96" type="line"/>
      <point x="55" y="96" type="line"/>
      <point x="55" y="160" type="line"/>
      <point x="87" y="160" type="line"/>
      <point x="87" y="256" type="line"/>
      <point x="119" y="256" type="line"/>
      <point x="119" y="320" type="line"/>
      <point x="151" y="320" type="line"/>
      <point x="151" y="384" type="line"/>
      <point x="183" y="384" type="line"/>
      <point x="183" y="448" type="line"/>
      <point x="215" y="448" type="line"/>
      <point x="215" y="512" type="line"/>
      <point x="247" y="512" type="line"/>
      <point x="247" y="576" type="line"/>
      <point x="279" y="576" type="line"/>
      <point x="279" y="640" type="line"/>
      <point x="375" y="640" type="line"/>
      <point x="375" y="576" type="line"/>
      <point x="407" y="576" type="line"/>
      <point x="407" y="512" type="line"/>
      <point x="439" y="512" type="line"/>
      <point x="439" y="448" type="line"/>
      <point x="471" y="448" type="line"/>
      <point x="471" y="384" type="line"/>
      <point x="503" y="384" type="line"/>
      <point x="503" y="320" type="line"/>
      <point x="535" y="320" type="line"/>
      <point x="535" y="256" type="line"/>
      <point x="567" y="256" type="line"/>
      <point x="567" y="160" type="line"/>
      <point x="599" y="160" type="line"/>
      <point x="599" y="96" type="line"/>
      <point x="631" y="96" type="line"/>
      <point x="631" y="0" type="line"/>
      <point x="535" y="0" type="line"/>
      <point x="535" y="64" type="line"/>
      <point x="503" y="64" type="line"/>
      <point x="503" y="128" type="line"/>
      <point x="471" y="128" type="line"/>
      <point x="471" y="192" type="line"/>
      <point x="183" y="192" type="line"/>
      <point x="183" y="128" type="line"/>
      <point x="151" y="128" type="line"/>
      <point x="151" y="64" type="line"/>
      <point x="119" y="64" type="line"/>
      <point x="119" y="0" type="line"/>
    </contour>
    <contour>
      <point x="151" y="640" type="line"/>
      <point x="151" y="672" type="line"/>
      <point x="183" y="672" type="line"/>
      <point x="183" y="704" type="line"/>
      <point x="215" y="704" type="line"/>
      <point x="215" y="736" type="line"/>
      <point x="247" y="736" type="line"/>
      <point x="247" y="768" type="line"/>
      <point x="279" y="768" type="line"/>
      <point x="279" y="800" type="line"/>
      <point x="375" y="800" type="line"/>
      <point x="375" y="768" type="line"/>
      <point x="407" y="768" type="line"/>
      <point x="407" y="736" type="line"/>
      <point x="439" y="736" type="line"/>
      <point x="439" y="704" type="line"/>
      <point x="471" y="704" type="line"/>
      <point x="471" y="672" type="line"/>
      <point x="503" y="672" type="line"/>
      <point x="503" y="640" type="line"/>
      <point x="439" y="640" type="line"/>
      <point x="439" y="672" type="line"/>
      <point x="375" y="672" type="line"/>
      <point x="375" y="704" type="line"/>
      <point x="343" y="704" type="line"/>
      <point x="343" y="736" type="line"/>
      <point x="311" y="736" type="line"/>
      <point x="311" y="704" type="line"/>
      <point x="279" y="704" type="line"/>
      <point x="279" y="672" type="line"/>
      <point x="215" y="672" type="line"/>
      <point x="215" y="640" type="line"/>
    </contour>
  </outline>
</glyph>
<glyph name="Atilde" format="2">
  <advance width="675"/>
  <unicode hex="00C3"/>
  <outline>
    <contour>
      <point x="435" y="288" type="line"/>
      <point x="435" y="320" type="line"/>
      <point x="403" y="320" type="line"/>
      <point x="403" y="384" type="line"/>
      <point x="371" y="384" type="line"/>
      <point x="371" y="448" type="line"/>
      <point x="339" y="448" type="line"/>
      <point x="339" y="512" type="line"/>
      <point x="307" y="512" type="line"/>
      <point x="307" y="448" type="line"/>
      <point x="275" y="448" type="line"/>
      <point x="275" y="384" type="line"/>
      <point x="243" y="384" type="line"/>
      <point x="243" y="320" type="line"/>
      <point x="211" y="320" type="line"/>
      <point x="211" y="288" type="line"/>
    </contour>
    <contour>
      <point x="19" y="0" type="line"/>
      <point x="19" y="96" type="line"/>
      <point x="51" y="96" type="line"/>
      <point x="51" y="160" type="line"/>
      <point x="83" y="160" type="line"/>
      <point x="83" y="256" type="line"/>
      <point x="115" y="256" type="line"/>
      <point x="115" y="320" type="line"/>
      <point x="147" y="320" type="line"/>
      <point x="147" y="384" type="line"/>
      <point x="179" y="384" type="line"/>
      <point x="179" y="448" type="line"/>
      <point x="211" y="448" type="line"/>
      <point x="211" y="512" type="line"/>
      <point x="243" y="512" type="line"/>
      <point x="243" y="576" type="line"/>
      <point x="275" y="576" type="line"/>
      <point x="275" y="640" type="line"/>
      <point x="371" y="640" type="line"/>
      <point x="371" y="576" type="line"/>
      <point x="403" y="576" type="line"/>
      <point x="403" y="512" type="line"/>
      <point x="435" y="512" type="line"/>
      <point x="435" y="448" type="line"/>
      <point x="467" y="448" type="line"/>
      <point x="467" y="384" type="line"/>
      <point x="499" y="384" type="line"/>
      <point x="499" y="320" type="line"/>
      <point x="531" y="320" type="line"/>
      <point x="531" y="256" type="line"/>
      <point x="563" y="256" type="line"/>
      <point x="563" y="160" type="line"/>
      <point x="595" y="160" type="line"/>
      <point x="595" y="96" type="line"/>
      <point x="627" y="96" type="line"/>
      <point x="627" y="0" type="line"/>
      <point x="531" y="0" type="line"/>
      <point x="531" y="64" type="line"/>
      <point x="499" y="64" type="line"/>
      <point x="499" y="128" type="line"/>
      <point x="467" y="128" type="line"/>
      <point x="467" y="192" type="line"/>
      <point x="179" y="192" type="line"/>
      <point x="179" y="128" type="line"/>
      <point x="147" y="128" type="line"/>
      <point x="147" y="64" type="line"/>
      <point x="115" y="64" type="line"/>
      <point x="115" y="0" type="line"/>
    </contour>
    <contour>
      <point x="339" y="672" type="line"/>
      <point x="339" y="704" type="line"/>
      <point x="307" y="704" type="line"/>
      <point x="307" y="736" type="line"/>
      <point x="275" y="736" type="line"/>
      <point x="275" y="768" type="line"/>
      <point x="211" y="768" type="line"/>
      <point x="211" y="736" type="line"/>
      <point x="179" y="736" type="line"/>
      <point x="179" y="704" type="line"/>
      <point x="147" y="704" type="line"/>
      <point x="147" y="768" type="line"/>
      <point x="179" y="768" type="line"/>
      <point x="179" y="800" type="line"/>
      <point x="211" y="800" type="line"/>
      <point x="211" y="832" type="line"/>
      <point x="307" y="832" type="line"/>
      <point x="307" y="800" type="line"/>
      <point x="339" y="800" type="line"/>
      <point x="339" y="768" type="line"/>
      <point x="371" y="768" type="line"/>
      <point x="371" y="736" type="line"/>
      <point x="435" y="736" type="line"/>
      <point x="435" y="768" type="line"/>
      <point x="467" y="768" type="line"/>
      <point x="467" y="800" type="line"/>
      <point x="499" y="800" type="line"/>
      <point x="499" y="736" type="line"/>
      <point x="467" y="736" type="line"/>
      <point x="467" y="704" type="line"/>
      <point x="435" y="704" type="line"/>
      <point x="435" y="672" type="line"/>
    </contour>
  </outline>
</glyph>
<glyph name="Aring" format="2">
  <advance width="673"/>
  <unicode hex="00C5"/>
  <outline>
    <contour>
      <point x="433" y="288" type="line"/>
      <point x="433" y="320" type="line"/>
      <point x="401" y="320" type="line"/>
      <point x="401" y="384" type="line"/>
      <point x="369" y="384" type="line"/>
      <point x="369" y="448" type="line"/>
      <point x="337" y="448" type="line"/>
      <point x="337" y="512" type="line"/>
      <point x="305" y="512" type="line"/>
      <point x="305" y="448" type="line"/>
      <point x="273" y="448" type="line"/>
      <point x="273" y="384" type="line"/>
      <point x="241" y="384" type="line"/>
      <point x="241" y="320" type="line"/>
      <point x="209" y="320" type="line"/>
      <point x="209" y="288" type="line"/>
    </contour>
    <contour>
      <point x="337" y="640" type="line"/>
      <point x="337" y="672" type="line"/>
      <point x="369" y="672" type="line"/>
      <point x="369" y="704" type="line"/>
      <point x="337" y="704" type="line"/>
      <point x="337" y="736" type="line"/>
      <point x="305" y="736" type="line"/>
      <point x="305" y="704" type="line"/>
      <point x="273" y="704" type="line"/>
      <point x="273" y="672" type="line"/>
      <point x="305" y="672" type="line"/>
      <point x="305" y="640" type="line"/>
    </contour>
    <contour>
      <point x="17" y="0" type="line"/>
      <point x="17" y="96" type="line"/>
      <point x="49" y="96" type="line"/>
      <point x="49" y="160" type="line"/>
      <point x="81" y="160" type="line"/>
      <point x="81" y="256" type="line"/>
      <point x="113" y="256" type="line"/>
      <point x="113" y="320" type="line"/>
      <point x="145" y="320" type="line"/>
      <point x="145" y="384" type="line"/>
      <point x="177" y="384" type="line"/>
      <point x="177" y="448" type="line"/>
      <point x="209" y="448" type="line"/>
      <point x="209" y="512" type="line"/>
      <point x="241" y="512" type="line"/>
      <point x="241" y="576" type="line"/>
      <point x="273" y="576" type="line"/>
      <point x="273" y="640" type="line"/>
      <point x="241" y="640" type="line"/>
      <point x="241" y="736" type="line"/>
      <point x="273" y="736" type="line"/>
      <point x="273" y="768" type="line"/>
      <point x="369" y="768" type="line"/>
      <point x="369" y="736" type="line"/>
      <point x="401" y="736" type="line"/>
      <point x="401" y="640" type="line"/>
      <point x="369" y="640" type="line"/>
      <point x="369" y="576" type="line"/>
      <point x="401" y="576" type="line"/>
      <point x="401" y="512" type="line"/>
      <point x="433" y="512" type="line"/>
      <point x="433" y="448" type="line"/>
      <point x="465" y="448" type="line"/>
      <point x="465" y="384" type="line"/>
      <point x="497" y="384" type="line"/>
      <point x="497" y="320" type="line"/>
      <point x="529" y="320" type="line"/>
      <point x="529" y="256" type="line"/>
      <point x="561" y="256" type="line"/>
      <point x="561" y="160" type="line"/>
      <point x="593" y="160" type="line"/>
      <point x="593" y="96" type="line"/>
      <point x="625" y="96" type="line"/>
      <point x="625" y="0" type="line"/>
      <point x="529" y="0" type="line"/>
      <point x="529" y="64" type="line"/>
      <point x="497" y="64" type="line"/>
      <point x="497" y="128" type="line"/>
      <point x="465" y="128" type="line"/>
      <point x="465" y="192" type="line"/>
      <point x="177" y="192" type="line"/>
      <point x="177" y="128" type="line"/>
      <point x="145" y="128" type="line"/>
      <point x="145" y="64" type="line"/>
      <point x="113" y="64" type="line"/>
      <point x="113" y="0" type="line"/>
    </contour>
  </outline>
</glyph>
<glyph name="Ccedilla" format="2">
  <advance width="662"/>
  <unicode hex="00C7"/>
  <outline>
    <contour>
      <point x="269" y="-192" type="line"/>
      <point x="269" y="-160" type="line"/>
      <point x="237" y="-160" type="line"/>
      <point x="237" y="-96" type="line"/>
      <point x="269" y="-96" type="line"/>
      <point x="269" y="-128" type="line"/>
      <point x="333" y="-128" type="line"/>
      <point x="333" y="-64" type="line"/>
      <point x="269" y="-64" type="line"/>
      <point x="269" y="32" type="line"/>
      <point x="173" y="32" type="line"/>
      <point x="173" y="64" type="line"/>
      <point x="141" y="64" type="line"/>
      <point x="141" y="96" type="line"/>
      <point x="109" y="96" type="line"/>
      <point x="109" y="128" type="line"/>
      <point x="77" y="128" type="line"/>
      <point x="77" y="192" type="line"/>
      <point x="45" y="192" type="line"/>
      <point x="45" y="448" type="line"/>
      <point x="77" y="448" type="line"/>
      <point x="77" y="512" type="line"/>
      <point x="109" y="512" type="line"/>
      <point x="109" y="544" type="line"/>
      <point x="141" y="544" type="line"/>
      <point x="141" y="576" type="line"/>
      <point x="173" y="576" type="line"/>
      <point x="173" y="608" type="line"/>
      <point x="269" y="608" type="line"/>
      <point x="269" y="640" type="line"/>
      <point x="429" y="640" type="line"/>
      <point x="429" y="608" type="line"/>
      <point x="525" y="608" type="line"/>
      <point x="525" y="576" type="line"/>
      <point x="557" y="576" type="line"/>
      <point x="557" y="512" type="line"/>
      <point x="589" y="512" type="line"/>
      <point x="589" y="480" type="line"/>
      <point x="621" y="480" type="line"/>
      <point x="621" y="448" type="line"/>
      <point x="493" y="448" type="line"/>
      <point x="493" y="480" type="line"/>
      <point x="461" y="480" type="line"/>
      <point x="461" y="512" type="line"/>
      <point x="397" y="512" type="line"/>
      <point x="397" y="544" type="line"/>
      <point x="301" y="544" type="line"/>
      <point x="301" y="512" type="line"/>
      <point x="237" y="512" type="line"/>
      <point x="237" y="480" type="line"/>
      <point x="205" y="480" type="line"/>
      <point x="205" y="448" type="line"/>
      <point x="173" y="448" type="line"/>
      <point x="173" y="384" type="line"/>
      <point x="141" y="384" type="line"/>
      <point x="141" y="256" type="line"/>
      <point x="173" y="256" type="line"/>
      <point x="173" y="192" type="line"/>
      <point x="205" y="192" type="line"/>
      <point x="205" y="160" type="line"/>
      <point x="237" y="160" type="line"/>
      <point x="237" y="128" type="line"/>
      <point x="301" y="128" type="line"/>
      <point x="301" y="96" type="line"/>
      <point x="397" y="96" type="line"/>
      <point x="397" y="128" type="line"/>
      <point x="461" y="128" type="line"/>
      <point x="461" y="160" type="line"/>
      <point x="493" y="160" type="line"/>
      <point x="493" y="192" type="line"/>
      <point x="621" y="192" type="line"/>
      <point x="621" y="160" type="line"/>
      <point x="589" y="160" type="line"/>
      <point x="589" y="128" type="line"/>
      <point x="557" y="128" type="line"/>
      <point x="557" y="64" type="line"/>
      <point x="525" y="64" type="line"/>
      <point x="525" y="32" type="line"/>
      <point x="429" y="32" type="line"/>
      <point x="429" y="0" type="line"/>
      <point x="301" y="0" type="line"/>
      <point x="301" y="-32" type="line"/>
      <point x="397" y="-32" type="line"/>
      <point x="397" y="-64" type="line"/>
      <point x="429" y="-64" type="line"/>
      <point x="429" y="-160" type="line"/>
      <point x="397" y="-160" type="line"/>
      <point x="397" y="-192" type="line"/>
    </contour>
  </outline>
</glyph>
<glyph name="Ecircumflex" format="2">
  <advance width="500"/>
  <unicode hex="00CA"/>
  <outline>
    <contour>
      <point x="57" y="0" type="line"/>
      <point x="57" y="640" type="line"/>
      <point x="441" y="640" type="line"/>
      <point x="441" y="544" type="line"/>
      <point x="153" y="544" type="line"/>
      <point x="153" y="384" type="line"/>
      <point x="441" y="384" type="line"/>
      <point x="441" y="288" type="line"/>
      <point x="153" y="288" type="line"/>
      <point x="153" y="96" type="line"/>
      <point x="441" y="96" type="line"/>
      <point x="441" y="0" type="line"/>
    </contour>
    <contour>
      <point x="89" y="672" type="line"/>
      <point x="89" y="704" type="line"/>
      <point x="121" y="704" type="line"/>
      <point x="121" y="736" type="line"/>
      <point x="153" y="736" type="line"/>
      <point x="153" y="768" type="line"/>
      <point x="185" y="768" type="line"/>
      <point x="185" y="800" type="line"/>
      <point x="313" y="800" type="line"/>
      <point x="313" y="768" type="line"/>
      <point x="345" y="768" type="line"/>
      <point x="345" y="736" type="line"/>
      <point x="377" y="736" type="line"/>
      <point x="377" y="704" type="line"/>
      <point x="409" y="704" type="line"/>
      <point x="409" y="672" type="line"/>
      <point x="345" y="672" type="line"/>
      <point x="345" y="704" type="line"/>
      <point x="281" y="704" type="line"/>
      <point x="281" y="736" type="line"/>
      <point x="217" y="736" type="line"/>
      <point x="217" y="704" type="line"/>
      <point x="153" y="704" type="line"/>
      <point x="153" y="672" type="line"/>
    </contour>
  </outline>
</glyph>
<glyph name="Igrave" format="2">
  <advance width="223"/>
  <unicode hex="00CC"/>
  <outline>
    <contour>
      <point x="62" y="0" type="line"/>
      <point x="62" y="640" type="line"/>
      <point x="158" y="640" type="line"/>
      <point x="158" y="0" type="line"/>
    </contour>
    <contour>
      <point x="62" y="704" type="line"/>
      <point x="62" y="736" type="line"/>
      <point x="30" y="736" type="line"/>
      <point x="30" y="768" type="line"/>
      <point x="-2" y="768" type="line"/>
      <point x="-2" y="800" type="line"/>
      <point x="94" y="800" type="line"/>
      <point x="94" y="768" type="line"/>
      <point x="126" y="768" type="line"/>
      <point x="126" y="736" type="line"/>
      <point x="158" y="736" type="line"/>
      <point x="158" y="704" type="line"/>
    </contour>
  </outline>
</glyph>
<glyph name="Iacute" format="2">
  <advance width="283"/>
  <unicode hex="00CD"/>
  <outline>
    <contour>
      <point x="58" y="0" type="line"/>
      <point x="58" y="640" type="line"/>
      <point x="154" y="640" type="line"/>
      <point x="154" y="0" type="line"/>
    </contour>
    <contour>
      <point x="58" y="704" type="line"/>
      <point x="58" y="736" type="line"/>
      <point x="90" y="736" type="line"/>
      <point x="90" y="768" type="line"/>
      <point x="122" y="768" type="line"/>
      <point x="122" y="800" type="line"/>
      <point x="218" y="800" type="line"/>
      <point x="218" y="768" type="line"/>
      <point x="186" y="768" type="line"/>
      <point x="186" y="736" type="line"/>
      <point x="154" y="736" type="line"/>
      <point x="154" y="704" type="line"/>
    </contour>
  </outline>
</glyph>
<glyph name="Icircumflex" format="1">
  <advance width="405"/>
  <unicode hex="00CE"/>
  <outline>
    <contour>
      <point x="116" y="0" type="line"/>
      <point x="116" y="640" type="line"/>
      <point x="212" y="640" type="line"/>
      <point x="212" y="0" type="line"/>
    </contour>
    <contour>
      <point x="-12" y="640" type="line"/>
      <point x="-12" y="672" type="line"/>
      <point x="20" y="672" type="line"/>
      <point x="20" y="704" type="line"/>
      <point x="52" y="704" type="line"/>
      <point x="52" y="736" type="line"/>
      <point x="84" y="736" type="line"/>
      <point x="84" y="768" type="line"/>
      <point x="116" y="768" type="line"/>
      <point x="116" y="800" type="line"/>
      <point x="212" y="800" type="line"/>
      <point x="212" y="768" type="line"/>
      <point x="244" y="768" type="line"/>
      <point x="244" y="736" type="line"/>
      <point x="276" y="736" type="line"/>
      <point x="276" y="704" type="line"/>
      <point x="308" y="704" type="line"/>
      <point x="308" y="672" type="line"/>
      <point x="340" y="672" type="line"/>
      <point x="340" y="640" type="line"/>
      <point x="276" y="640" type="line"/>
      <point x="276" y="672" type="line"/>
      <point x="212" y="672" type="line"/>
      <point x="212" y="704" type="line"/>
      <point x="180" y="704" type="line"/>
      <point x="180" y="736" type="line"/>
      <point x="148" y="736" type="line"/>
      <point x="148" y="704" type="line"/>
      <point x="116" y="704" type="line"/>
      <point x="116" y="672" type="line"/>
      <point x="52" y="672" type="line"/>
      <point x="52" y="640" type="line"/>
    </contour>
  </outline>
</glyph>
<glyph name="Idieresis" format="2">
  <advance width="326"/>
  <unicode hex="00CF"/>
  <outline>
    <contour>
      <point x="69" y="0" type="line"/>
      <point x="69" y="640" type="line"/>
      <point x="165" y="640" type="line"/>
      <point x="165" y="0" type="line"/>
    </contour>
    <contour>
      <point x="-27" y="704" type="line"/>
      <point x="-27" y="800" type="line"/>
      <point x="69" y="800" type="line"/>
      <point x="69" y="704" type="line"/>
    </contour>
    <contour>
      <point x="165" y="704" type="line"/>
      <point x="165" y="800" type="line"/>
      <point x="261" y="800" type="line"/>
      <point x="261" y="704" type="line"/>
    </contour>
  </outline>
</glyph>
<glyph name="Ntilde" format="2">
  <advance width="628"/>
  <unicode hex="00D1"/>
  <outline>
    <contour>
      <point x="57" y="0" type="line"/>
      <point x="57" y="640" type="line"/>
      <point x="217" y="640" type="line"/>
      <point x="217" y="576" type="line"/>
      <point x="249" y="576" type="line"/>
      <point x="249" y="512" type="line"/>
      <point x="281" y="512" type="line"/>
      <point x="281" y="448" type="line"/>
      <point x="313" y="448" type="line"/>
      <point x="313" y="384" type="line"/>
      <point x="345" y="384" type="line"/>
      <point x="345" y="320" type="line"/>
      <point x="377" y="320" type="line"/>
      <point x="377" y="256" type="line"/>
      <point x="409" y="256" type="line"/>
      <point x="409" y="192" type="line"/>
      <point x="441" y="192" type="line"/>
      <point x="441" y="128" type="line"/>
      <point x="473" y="128" type="line"/>
      <point x="473" y="640" type="line"/>
      <point x="569" y="640" type="line"/>
      <point x="569" y="0" type="line"/>
      <point x="409" y="0" type="line"/>
      <point x="409" y="64" type="line"/>
      <point x="377" y="64" type="line"/>
      <point x="377" y="128" type="line"/>
      <point x="345" y="128" type="line"/>
      <point x="345" y="192" type="line"/>
      <point x="313" y="192" type="line"/>
      <point x="313" y="256" type="line"/>
      <point x="281" y="256" type="line"/>
      <point x="281" y="320" type="line"/>
      <point x="249" y="320" type="line"/>
      <point x="249" y="384" type="line"/>
      <point x="217" y="384" type="line"/>
      <point x="217" y="448" type="line"/>
      <point x="185" y="448" type="line"/>
      <point x="185" y="512" type="line"/>
      <point x="153" y="512" type="line"/>
      <point x="153" y="0" type="line"/>
    </contour>
    <contour>
      <point x="345" y="672" type="line"/>
      <point x="345" y="704" type="line"/>
      <point x="313" y="704" type="line"/>
      <point x="313" y="736" type="line"/>
      <point x="281" y="736" type="line"/>
      <point x="281" y="768" type="line"/>
      <point x="217" y="768" type="line"/>
      <point x="217" y="736" type="line"/>
      <point x="185" y="736" type="line"/>
      <point x="185" y="704" type="line"/>
      <point x="153" y="704" type="line"/>
      <point x="153" y="768" type="line"/>
      <point x="185" y="768" type="line"/>
      <point x="185" y="800" type="line"/>
      <point x="217" y="800" type="line"/>
      <point x="217" y="832" type="line"/>
      <point x="313" y="832" type="line"/>
      <point x="313" y="800" type="line"/>
      <point x="345" y="800" type="line"/>
      <point x="345" y="768" type="line"/>
      <point x="377" y="768" type="line"/>
      <point x="377" y="736" type="line"/>
      <point x="441" y="736" type="line"/>
      <point x="441" y="768" type="line"/>
      <point x="473" y="768" type="line"/>
      <point x="473" y="800" type="line"/>
      <point x="505" y="800" type="line"/>
      <point x="505" y="736" type="line"/>
      <point x="473" y="736" type="line"/>
      <point x="473" y="704" type="line"/>
      <point x="441" y="704" type="line"/>
      <point x="441" y="672" type="line"/>
    </contour>
  </outline>
</glyph>
<glyph name="Oacute" format="2">
  <advance width="696"/>
  <unicode hex="00D3"/>
  <outline>
    <contour>
      <point x="395" y="96" type="line"/>
      <point x="395" y="128" type="line"/>
      <point x="459" y="128" type="line"/>
      <point x="459" y="160" type="line"/>
      <point x="491" y="160" type="line"/>
      <point x="491" y="192" type="line"/>
      <point x="523" y="192" type="line"/>
      <point x="523" y="256" type="line"/>
      <point x="555" y="256" type="line"/>
      <point x="555" y="384" type="line"/>
      <point x="523" y="384" type="line"/>
      <point x="523" y="448" type="line"/>
      <point x="491" y="448" type="line"/>
      <point x="491" y="480" type="line"/>
      <point x="459" y="480" type="line"/>
      <point x="459" y="512" type="line"/>
      <point x="395" y="512" type="line"/>
      <point x="395" y="544" type="line"/>
      <point x="299" y="544" type="line"/>
      <point x="299" y="512" type="line"/>
      <point x="235" y="512" type="line"/>
      <point x="235" y="480" type="line"/>
      <point x="203" y="480" type="line"/>
      <point x="203" y="448" type="line"/>
      <point x="171" y="448" type="line"/>
      <point x="171" y="384" type="line"/>
      <point x="139" y="384" type="line"/>
      <point x="139" y="256" type="line"/>
      <point x="171" y="256" type="line"/>
      <point x="171" y="192" type="line"/>
      <point x="203" y="192" type="line"/>
      <point x="203" y="160" type="line"/>
      <point x="235" y="160" type="line"/>
      <point x="235" y="128" type="line"/>
      <point x="299" y="128" type="line"/>
      <point x="299" y="96" type="line"/>
    </contour>
    <contour>
      <point x="267" y="0" type="line"/>
      <point x="267" y="32" type="line"/>
      <point x="171" y="32" type="line"/>
      <point x="171" y="64" type="line"/>
      <point x="139" y="64" type="line"/>
      <point x="139" y="96" type="line"/>
      <point x="107" y="96" type="line"/>
      <point x="107" y="128" type="line"/>
      <point x="75" y="128" type="line"/>
      <point x="75" y="192" type="line"/>
      <point x="43" y="192" type="line"/>
      <point x="43" y="448" type="line"/>
      <point x="75" y="448" type="line"/>
      <point x="75" y="512" type="line"/>
      <point x="107" y="512" type="line"/>
      <point x="107" y="544" type="line"/>
      <point x="139" y="544" type="line"/>
      <point x="139" y="576" type="line"/>
      <point x="171" y="576" type="line"/>
      <point x="171" y="608" type="line"/>
      <point x="267" y="608" type="line"/>
      <point x="267" y="640" type="line"/>
      <point x="427" y="640" type="line"/>
      <point x="427" y="608" type="line"/>
      <point x="523" y="608" type="line"/>
      <point x="523" y="576" type="line"/>
      <point x="555" y="576" type="line"/>
      <point x="555" y="544" type="line"/>
      <point x="587" y="544" type="line"/>
      <point x="587" y="512" type="line"/>
      <point x="619" y="512" type="line"/>
      <point x="619" y="448" type="line"/>
      <point x="651" y="448" type="line"/>
      <point x="651" y="192" type="line"/>
      <point x="619" y="192" type="line"/>
      <point x="619" y="128" type="line"/>
      <point x="587" y="128" type="line"/>
      <point x="587" y="96" type="line"/>
      <point x="555" y="96" type="line"/>
      <point x="555" y="64" type="line"/>
      <point x="523" y="64" type="line"/>
      <point x="523" y="32" type="line"/>
      <point x="427" y="32" type="line"/>
      <point x="427" y="0" type="line"/>
    </contour>
    <contour>
      <point x="299" y="704" type="line"/>
      <point x="299" y="736" type="line"/>
      <point x="331" y="736" type="line"/>
      <point x="331" y="768" type="line"/>
      <point x="363" y="768" type="line"/>
      <point x="363" y="800" type="line"/>
      <point x="459" y="800" type="line"/>
      <point x="459" y="768" type="line"/>
      <point x="427" y="768" type="line"/>
      <point x="427" y="736" type="line"/>
      <point x="395" y="736" type="line"/>
      <point x="395" y="704" type="line"/>
    </contour>
  </outline>
</glyph>
<glyph name="Ugrave" format="2">
  <advance width="594"/>
  <unicode hex="00D9"/>
  <outline>
    <contour>
      <point x="183" y="0" type="line"/>
      <point x="183" y="32" type="line"/>
      <point x="119" y="32" type="line"/>
      <point x="119" y="64" type="line"/>
      <point x="87" y="64" type="line"/>
      <point x="87" y="128" type="line"/>
      <point x="55" y="128" type="line"/>
      <point x="55" y="640" type="line"/>
      <point x="151" y="640" type="line"/>
      <point x="151" y="192" type="line"/>
      <point x="183" y="192" type="line"/>
      <point x="183" y="128" type="line"/>
      <point x="215" y="128" type="line"/>
      <point x="215" y="96" type="line"/>
      <point x="375" y="96" type="line"/>
      <point x="375" y="128" type="line"/>
      <point x="407" y="128" type="line"/>
      <point x="407" y="192" type="line"/>
      <point x="439" y="192" type="line"/>
      <point x="439" y="640" type="line"/>
      <point x="535" y="640" type="line"/>
      <point x="535" y="128" type="line"/>
      <point x="503" y="128" type="line"/>
      <point x="503" y="64" type="line"/>
      <point x="471" y="64" type="line"/>
      <point x="471" y="32" type="line"/>
      <point x="407" y="32" type="line"/>
      <point x="407" y="0" type="line"/>
    </contour>
    <contour>
      <point x="247" y="704" type="line"/>
      <point x="247" y="736" type="line"/>
      <point x="215" y="736" type="line"/>
      <point x="215" y="768" type="line"/>
      <point x="183" y="768" type="line"/>
      <point x="183" y="800" type="line"/>
      <point x="279" y="800" type="line"/>
      <point x="279" y="768" type="line"/>
      <point x="311" y="768" type="line"/>
      <point x="311" y="736" type="line"/>
      <point x="343" y="736" type="line"/>
      <point x="343" y="704" type="line"/>
    </contour>
  </outline>
</glyph>
<glyph name="Yacute" format="2">
  <advance width="600"/>
  <unicode hex="00DD"/>
  <outline>
    <contour>
      <point x="221" y="0" type="line"/>
      <point x="221" y="224" type="line"/>
      <point x="189" y="224" type="line"/>
      <point x="189" y="288" type="line"/>
      <point x="157" y="288" type="line"/>
      <point x="157" y="352" type="line"/>
      <point x="125" y="352" type="line"/>
      <point x="125" y="416" type="line"/>
      <point x="93" y="416" type="line"/>
      <point x="93" y="480" type="line"/>
      <point x="61" y="480" type="line"/>
      <point x="61" y="544" type="line"/>
      <point x="29" y="544" type="line"/>
      <point x="29" y="608" type="line"/>
      <point x="-3" y="608" type="line"/>
      <point x="-3" y="640" type="line"/>
      <point x="125" y="640" type="line"/>
      <point x="125" y="576" type="line"/>
      <point x="157" y="576" type="line"/>
      <point x="157" y="512" type="line"/>
      <point x="189" y="512" type="line"/>
      <point x="189" y="448" type="line"/>
      <point x="221" y="448" type="line"/>
      <point x="221" y="384" type="line"/>
      <point x="253" y="384" type="line"/>
      <point x="253" y="320" type="line"/>
      <point x="285" y="320" type="line"/>
      <point x="285" y="384" type="line"/>
      <point x="317" y="384" type="line"/>
      <point x="317" y="448" type="line"/>
      <point x="349" y="448" type="line"/>
      <point x="349" y="512" type="line"/>
      <point x="381" y="512" type="line"/>
      <point x="381" y="576" type="line"/>
      <point x="413" y="576" type="line"/>
      <point x="413" y="640" type="line"/>
      <point x="541" y="640" type="line"/>
      <point x="541" y="608" type="line"/>
      <point x="509" y="608" type="line"/>
      <point x="509" y="544" type="line"/>
      <point x="477" y="544" type="line"/>
      <point x="477" y="480" type="line"/>
      <point x="445" y="480" type="line"/>
      <point x="445" y="416" type="line"/>
      <point x="413" y="416" type="line"/>
      <point x="413" y="352" type="line"/>
      <point x="381" y="352" type="line"/>
      <point x="381" y="288" type="line"/>
      <point x="349" y="288" type="line"/>
      <point x="349" y="224" type="line"/>
      <point x="317" y="224" type="line"/>
      <point x="317" y="0" type="line"/>
    </contour>
    <contour>
      <point x="221" y="704" type="line"/>
      <point x="221" y="736" type="line"/>
      <point x="253" y="736" type="line"/>
      <point x="253" y="768" type="line"/>
      <point x="285" y="768" type="line"/>
      <point x="285" y="800" type="line"/>
      <point x="381" y="800" type="line"/>
      <point x="381" y="768" type="line"/>
      <point x="349" y="768" type="line"/>
      <point x="349" y="736" type="line"/>
      <point x="317" y="736" type="line"/>
      <point x="317" y="704" type="line"/>
    </contour>
  </outline>
</glyph>
<glyph name="agrave" format="2">
  <advance width="507"/>
  <unicode hex="00E0"/>
  <outline>
    <contour>
      <point x="298" y="96" type="line"/>
      <point x="298" y="128" type="line"/>
      <point x="330" y="128" type="line"/>
      <point x="330" y="160" type="line"/>
      <point x="362" y="160" type="line"/>
      <point x="362" y="320" type="line"/>
      <point x="330" y="320" type="line"/>
      <point x="330" y="352" type="line"/>
      <point x="298" y="352" type="line"/>
      <point x="298" y="384" type="line"/>
      <point x="170" y="384" type="line"/>
      <point x="170" y="352" type="line"/>
      <point x="138" y="352" type="line"/>
      <point x="138" y="128" type="line"/>
      <point x="170" y="128" type="line"/>
      <point x="170" y="96" type="line"/>
    </contour>
    <contour>
      <point x="170" y="0" type="line"/>
      <point x="170" y="32" type="line"/>
      <point x="106" y="32" type="line"/>
      <point x="106" y="64" type="line"/>
      <point x="74" y="64" type="line"/>
      <point x="74" y="128" type="line"/>
      <point x="42" y="128" type="line"/>
      <point x="42" y="352" type="line"/>
      <point x="74" y="352" type="line"/>
      <point x="74" y="416" type="line"/>
      <point x="106" y="416" type="line"/>
      <point x="106" y="448" type="line"/>
      <point x="170" y="448" type="line"/>
      <point x="170" y="480" type="line"/>
      <point x="298" y="480" type="line"/>
      <point x="298" y="448" type="line"/>
      <point x="330" y="448" type="line"/>
      <point x="330" y="416" type="line"/>
      <point x="362" y="416" type="line"/>
      <point x="362" y="480" type="line"/>
      <point x="458" y="480" type="line"/>
      <point x="458" y="0" type="line"/>
      <point x="362" y="0" type="line"/>
      <point x="362" y="64" type="line"/>
      <point x="330" y="64" type="line"/>
      <point x="330" y="32" type="line"/>
      <point x="298" y="32" type="line"/>
      <point x="298" y="0" type="line"/>
    </contour>
    <contour>
      <point x="202" y="544" type="line"/>
      <point x="202" y="576" type="line"/>
      <point x="170" y="576" type="line"/>
      <point x="170" y="608" type="line"/>
      <point x="138" y="608" type="line"/>
      <point x="138" y="640" type="line"/>
      <point x="234" y="640" type="line"/>
      <point x="234" y="608" type="line"/>
      <point x="266" y="608" type="line"/>
      <point x="266" y="576" type="line"/>
      <point x="298" y="576" type="line"/>
      <point x="298" y="544" type="line"/>
    </contour>
  </outline>
</glyph>
<glyph name="aacute" format="2">
  <advance width="507"/>
  <unicode hex="00E1"/>
  <outline>
    <contour>
      <point x="296" y="96" type="line"/>
      <point x="296" y="128" type="line"/>
      <point x="328" y="128" type="line"/>
      <point x="328" y="160" type="line"/>
      <point x="360" y="160" type="line"/>
      <point x="360" y="320" type="line"/>
      <point x="328" y="320" type="line"/>
      <point x="328" y="352" type="line"/>
      <point x="296" y="352" type="line"/>
      <point x="296" y="384" type="line"/>
      <point x="168" y="384" type="line"/>
      <point x="168" y="352" type="line"/>
      <point x="136" y="352" type="line"/>
      <point x="136" y="128" type="line"/>
      <point x="168" y="128" type="line"/>
      <point x="168" y="96" type="line"/>
    </contour>
    <contour>
      <point x="168" y="0" type="line"/>
      <point x="168" y="32" type="line"/>
      <point x="104" y="32" type="line"/>
      <point x="104" y="64" type="line"/>
      <point x="72" y="64" type="line"/>
      <point x="72" y="128" type="line"/>
      <point x="40" y="128" type="line"/>
      <point x="40" y="352" type="line"/>
      <point x="72" y="352" type="line"/>
      <point x="72" y="416" type="line"/>
      <point x="104" y="416" type="line"/>
      <point x="104" y="448" type="line"/>
      <point x="168" y="448" type="line"/>
      <point x="168" y="480" type="line"/>
      <point x="296" y="480" type="line"/>
      <point x="296" y="448" type="line"/>
      <point x="328" y="448" type="line"/>
      <point x="328" y="416" type="line"/>
      <point x="360" y="416" type="line"/>
      <point x="360" y="480" type="line"/>
      <point x="456" y="480" type="line"/>
      <point x="456" y="0" type="line"/>
      <point x="360" y="0" type="line"/>
      <point x="360" y="64" type="line"/>
      <point x="328" y="64" type="line"/>
      <point x="328" y="32" type="line"/>
      <point x="296" y="32" type="line"/>
      <point x="296" y="0" type="line"/>
    </contour>
    <contour>
      <point x="200" y="544" type="line"/>
      <point x="200" y="576" type="line"/>
      <point x="232" y="576" type="line"/>
      <point x="232" y="608" type="line"/>
      <point x="264" y="608" type="line"/>
      <point x="264" y="640" type="line"/>
      <point x="360" y="640" type="line"/>
      <point x="360" y="608" type="line"/>
      <point x="328" y="608" type="line"/>
      <point x="328" y="576" type="line"/>
      <point x="296" y="576" type="line"/>
      <point x="296" y="544" type="line"/>
    </contour>
  </outline>
</glyph>
<glyph name="acircumflex" format="2">
  <advance width="513"/>
  <unicode hex="00E2"/>
  <outline>
    <contour>
      <point x="300" y="96" type="line"/>
      <point x="300" y="128" type="line"/>
      <point x="332" y="128" type="line"/>
      <point x="332" y="160" type="line"/>
      <point x="364" y="160" type="line"/>
      <point x="364" y="320" type="line"/>
      <point x="332" y="320" type="line"/>
      <point x="332" y="352" type="line"/>
      <point x="300" y="352" type="line"/>
      <point x="300" y="384" type="line"/>
      <point x="172" y="384" type="line"/>
      <point x="172" y="352" type="line"/>
      <point x="140" y="352" type="line"/>
      <point x="140" y="128" type="line"/>
      <point x="172" y="128" type="line"/>
      <point x="172" y="96" type="line"/>
    </contour>
    <contour>
      <point x="172" y="0" type="line"/>
      <point x="172" y="32" type="line"/>
      <point x="108" y="32" type="line"/>
      <point x="108" y="64" type="line"/>
      <point x="76" y="64" type="line"/>
      <point x="76" y="128" type="line"/>
      <point x="44" y="128" type="line"/>
      <point x="44" y="352" type="line"/>
      <point x="76" y="352" type="line"/>
      <point x="76" y="416" type="line"/>
      <point x="108" y="416" type="line"/>
      <point x="108" y="448" type="line"/>
      <point x="172" y="448" type="line"/>
      <point x="172" y="480" type="line"/>
      <point x="300" y="480" type="line"/>
      <point x="300" y="448" type="line"/>
      <point x="332" y="448" type="line"/>
      <point x="332" y="416" type="line"/>
      <point x="364" y="416" type="line"/>
      <point x="364" y="480" type="line"/>
      <point x="460" y="480" type="line"/>
      <point x="460" y="0" type="line"/>
      <point x="364" y="0" type="line"/>
      <point x="364" y="64" type="line"/>
      <point x="332" y="64" type="line"/>
      <point x="332" y="32" type="line"/>
      <point x="300" y="32" type="line"/>
      <point x="300" y="0" type="line"/>
    </contour>
    <contour>
      <point x="108" y="512" type="line"/>
      <point x="108" y="544" type="line"/>
      <point x="140" y="544" type="line"/>
      <point x="140" y="576" type="line"/>
      <point x="172" y="576" type="line"/>
      <point x="172" y="608" type="line"/>
      <point x="204" y="608" type="line"/>
      <point x="204" y="640" type="line"/>
      <point x="332" y="640" type="line"/>
      <point x="332" y="608" type="line"/>
      <point x="364" y="608" type="line"/>
      <point x="364" y="576" type="line"/>
      <point x="396" y="576" type="line"/>
      <point x="396" y="544" type="line"/>
      <point x="428" y="544" type="line"/>
      <point x="428" y="512" type="line"/>
      <point x="364" y="512" type="line"/>
      <point x="364" y="544" type="line"/>
      <point x="300" y="544" type="line"/>
      <point x="300" y="576" type="line"/>
      <point x="236" y="576" type="line"/>
      <point x="236" y="544" type="line"/>
      <point x="172" y="544" type="line"/>
      <point x="172" y="512" type="line"/>
    </contour>
  </outline>
</glyph>
<glyph name="atilde" format="2">
  <advance width="518"/>
  <unicode hex="00E3"/>
  <outline>
    <contour>
      <point x="305" y="96" type="line"/>
      <point x="305" y="128" type="line"/>
      <point x="337" y="128" type="line"/>
      <point x="337" y="160" type="line"/>
      <point x="369" y="160" type="line"/>
      <point x="369" y="320" type="line"/>
      <point x="337" y="320" type="line"/>
      <point x="337" y="352" type="line"/>
      <point x="305" y="352" type="line"/>
      <point x="305" y="384" type="line"/>
      <point x="177" y="384" type="line"/>
      <point x="177" y="352" type="line"/>
      <point x="145" y="352" type="line"/>
      <point x="145" y="128" type="line"/>
      <point x="177" y="128" type="line"/>
      <point x="177" y="96" type="line"/>
    </contour>
    <contour>
      <point x="177" y="0" type="line"/>
      <point x="177" y="32" type="line"/>
      <point x="113" y="32" type="line"/>
      <point x="113" y="64" type="line"/>
      <point x="81" y="64" type="line"/>
      <point x="81" y="128" type="line"/>
      <point x="49" y="128" type="line"/>
      <point x="49" y="352" type="line"/>
      <point x="81" y="352" type="line"/>
      <point x="81" y="416" type="line"/>
      <point x="113" y="416" type="line"/>
      <point x="113" y="448" type="line"/>
      <point x="177" y="448" type="line"/>
      <point x="177" y="480" type="line"/>
      <point x="305" y="480" type="line"/>
      <point x="305" y="448" type="line"/>
      <point x="337" y="448" type="line"/>
      <point x="337" y="416" type="line"/>
      <point x="369" y="416" type="line"/>
      <point x="369" y="480" type="line"/>
      <point x="465" y="480" type="line"/>
      <point x="465" y="0" type="line"/>
      <point x="369" y="0" type="line"/>
      <point x="369" y="64" type="line"/>
      <point x="337" y="64" type="line"/>
      <point x="337" y="32" type="line"/>
      <point x="305" y="32" type="line"/>
      <point x="305" y="0" type="line"/>
    </contour>
    <contour>
      <point x="273" y="512" type="line"/>
      <point x="273" y="544" type="line"/>
      <point x="241" y="544" type="line"/>
      <point x="241" y="576" type="line"/>
      <point x="209" y="576" type="line"/>
      <point x="209" y="608" type="line"/>
      <point x="145" y="608" type="line"/>
      <point x="145" y="576" type="line"/>
      <point x="113" y="576" type="line"/>
      <point x="113" y="544" type="line"/>
      <point x="81" y="544" type="line"/>
      <point x="81" y="608" type="line"/>
      <point x="113" y="608" type="line"/>
      <point x="113" y="640" type="line"/>
      <point x="145" y="640" type="line"/>
      <point x="145" y="672" type="line"/>
      <point x="241" y="672" type="line"/>
      <point x="241" y="640" type="line"/>
      <point x="273" y="640" type="line"/>
      <point x="273" y="608" type="line"/>
      <point x="305" y="608" type="line"/>
      <point x="305" y="576" type="line"/>
      <point x="369" y="576" type="line"/>
      <point x="369" y="608" type="line"/>
      <point x="401" y="608" type="line"/>
      <point x="401" y="640" type="line"/>
      <point x="433" y="640" type="line"/>
      <point x="433" y="576" type="line"/>
      <point x="401" y="576" type="line"/>
      <point x="401" y="544" type="line"/>
      <point x="369" y="544" type="line"/>
      <point x="369" y="512" type="line"/>
    </contour>
  </outline>
</glyph>
<glyph name="ccedilla" format="2">
  <advance width="442"/>
  <unicode hex="00E7"/>
  <outline>
    <contour>
      <point x="171" y="-192" type="line"/>
      <point x="171" y="-160" type="line"/>
      <point x="139" y="-160" type="line"/>
      <point x="139" y="-96" type="line"/>
      <point x="171" y="-96" type="line"/>
      <point x="171" y="-128" type="line"/>
      <point x="235" y="-128" type="line"/>
      <point x="235" y="-64" type="line"/>
      <point x="171" y="-64" type="line"/>
      <point x="171" y="32" type="line"/>
      <point x="107" y="32" type="line"/>
      <point x="107" y="64" type="line"/>
      <point x="75" y="64" type="line"/>
      <point x="75" y="128" type="line"/>
      <point x="43" y="128" type="line"/>
      <point x="43" y="352" type="line"/>
      <point x="75" y="352" type="line"/>
      <point x="75" y="416" type="line"/>
      <point x="107" y="416" type="line"/>
      <point x="107" y="448" type="line"/>
      <point x="171" y="448" type="line"/>
      <point x="171" y="480" type="line"/>
      <point x="299" y="480" type="line"/>
      <point x="299" y="448" type="line"/>
      <point x="363" y="448" type="line"/>
      <point x="363" y="416" type="line"/>
      <point x="395" y="416" type="line"/>
      <point x="395" y="320" type="line"/>
      <point x="331" y="320" type="line"/>
      <point x="331" y="352" type="line"/>
      <point x="299" y="352" type="line"/>
      <point x="299" y="384" type="line"/>
      <point x="171" y="384" type="line"/>
      <point x="171" y="352" type="line"/>
      <point x="139" y="352" type="line"/>
      <point x="139" y="128" type="line"/>
      <point x="171" y="128" type="line"/>
      <point x="171" y="96" type="line"/>
      <point x="299" y="96" type="line"/>
      <point x="299" y="128" type="line"/>
      <point x="331" y="128" type="line"/>
      <point x="331" y="160" type="line"/>
      <point x="395" y="160" type="line"/>
      <point x="395" y="64" type="line"/>
      <point x="363" y="64" type="line"/>
      <point x="363" y="32" type="line"/>
      <point x="299" y="32" type="line"/>
      <point x="299" y="0" type="line"/>
      <point x="203" y="0" type="line"/>
      <point x="203" y="-32" type="line"/>
      <point x="299" y="-32" type="line"/>
      <point x="299" y="-64" type="line"/>
      <point x="331" y="-64" type="line"/>
      <point x="331" y="-160" type="line"/>
      <point x="299" y="-160" type="line"/>
      <point x="299" y="-192" type="line"/>
    </contour>
  </outline>
</glyph>
<glyph name="eacute" format="2">
  <advance width="469"/>
  <unicode hex="00E9"/>
  <outline>
    <contour>
      <point x="328" y="288" type="line"/>
      <point x="328" y="352" type="line"/>
      <point x="296" y="352" type="line"/>
      <point x="296" y="384" type="line"/>
      <point x="168" y="384" type="line"/>
      <point x="168" y="352" type="line"/>
      <point x="136" y="352" type="line"/>
      <point x="136" y="288" type="line"/>
    </contour>
    <contour>
      <point x="168" y="0" type="line"/>
      <point x="168" y="32" type="line"/>
      <point x="104" y="32" type="line"/>
      <point x="104" y="64" type="line"/>
      <point x="72" y="64" type="line"/>
      <point x="72" y="128" type="line"/>
      <point x="40" y="128" type="line"/>
      <point x="40" y="352" type="line"/>
      <point x="72" y="352" type="line"/>
      <point x="72" y="416" type="line"/>
      <point x="104" y="416" type="line"/>
      <point x="104" y="448" type="line"/>
      <point x="168" y="448" type="line"/>
      <point x="168" y="480" type="line"/>
      <point x="296" y="480" type="line"/>
      <point x="296" y="448" type="line"/>
      <point x="360" y="448" type="line"/>
      <point x="360" y="416" type="line"/>
      <point x="392" y="416" type="line"/>
      <point x="392" y="352" type="line"/>
      <point x="424" y="352" type="line"/>
      <point x="424" y="224" type="line"/>
      <point x="136" y="224" type="line"/>
      <point x="136" y="128" type="line"/>
      <point x="168" y="128" type="line"/>
      <point x="168" y="96" type="line"/>
      <point x="296" y="96" type="line"/>
      <point x="296" y="128" type="line"/>
      <point x="328" y="128" type="line"/>
      <point x="328" y="160" type="line"/>
      <point x="424" y="160" type="line"/>
      <point x="424" y="96" type="line"/>
      <point x="392" y="96" type="line"/>
      <point x="392" y="64" type="line"/>
      <point x="360" y="64" type="line"/>
      <point x="360" y="32" type="line"/>
      <point x="296" y="32" type="line"/>
      <point x="296" y="0" type="line"/>
    </contour>
    <contour>
      <point x="200" y="544" type="line"/>
      <point x="200" y="576" type="line"/>
      <point x="232" y="576" type="line"/>
      <point x="232" y="608" type="line"/>
      <point x="264" y="608" type="line"/>
      <point x="264" y="640" type="line"/>
      <point x="360" y="640" type="line"/>
      <point x="360" y="608" type="line"/>
      <point x="328" y="608" type="line"/>
      <point x="328" y="576" type="line"/>
      <point x="296" y="576" type="line"/>
      <point x="296" y="544" type="line"/>
    </contour>
  </outline>
</glyph>
<glyph name="ucircumflex" format="2">
  <advance width="489"/>
  <unicode hex="00FB"/>
  <outline>
    <contour>
      <point x="116" y="0" type="line"/>
      <point x="116" y="32" type="line"/>
      <point x="84" y="32" type="line"/>
      <point x="84" y="64" type="line"/>
      <point x="52" y="64" type="line"/>
      <point x="52" y="480" type="line"/>
      <point x="148" y="480" type="line"/>
      <point x="148" y="128" type="line"/>
      <point x="180" y="128" type="line"/>
      <point x="180" y="96" type="line"/>
      <point x="276" y="96" type="line"/>
      <point x="276" y="128" type="line"/>
      <point x="308" y="128" type="line"/>
      <point x="308" y="160" type="line"/>
      <point x="340" y="160" type="line"/>
      <point x="340" y="480" type="line"/>
      <point x="436" y="480" type="line"/>
      <point x="436" y="0" type="line"/>
      <point x="340" y="0" type="line"/>
      <point x="340" y="64" type="line"/>
      <point x="308" y="64" type="line"/>
      <point x="308" y="32" type="line"/>
      <point x="276" y="32" type="line"/>
      <point x="276" y="0" type="line"/>
    </contour>
    <contour>
      <point x="84" y="512" type="line"/>
      <point x="84" y="544" type="line"/>
      <point x="116" y="544" type="line"/>
      <point x="116" y="576" type="line"/>
      <point x="148" y="576" type="line"/>
      <point x="148" y="608" type="line"/>
      <point x="180" y="608" type="line"/>
      <point x="180" y="640" type="line"/>
      <point x="308" y="640" type="line"/>
      <point x="308" y="608" type="line"/>
      <point x="340" y="608" type="line"/>
      <point x="340" y="576" type="line"/>
      <point x="372" y="576" type="line"/>
      <point x="372" y="544" type="line"/>
      <point x="404" y="544" type="line"/>
      <point x="404" y="512" type="line"/>
      <point x="340" y="512" type="line"/>
      <point x="340" y="544" type="line"/>
      <point x="276" y="544" type="line"/>
      <point x="276" y="576" type="line"/>
      <point x="212" y="576" type="line"/>
      <point x="212" y="544" type="line"/>
      <point x="148" y="544" type="line"/>
      <point x="148" y="512" type="line"/>
    </contour>
  </outline>
</glyph>
<glyph name="yacute" format="2">
  <advance width="458"/>
  <unicode hex="00FD"/>
  <outline>
    <contour>
      <point x="132" y="-192" type="line"/>
      <point x="132" y="-96" type="line"/>
      <point x="164" y="-96" type="line"/>
      <point x="164" y="0" type="line"/>
      <point x="196" y="0" type="line"/>
      <point x="196" y="64" type="line"/>
      <point x="164" y="64" type="line"/>
      <point x="164" y="128" type="line"/>
      <point x="132" y="128" type="line"/>
      <point x="132" y="192" type="line"/>
      <point x="100" y="192" type="line"/>
      <point x="100" y="288" type="line"/>
      <point x="68" y="288" type="line"/>
      <point x="68" y="384" type="line"/>
      <point x="36" y="384" type="line"/>
      <point x="36" y="480" type="line"/>
      <point x="132" y="480" type="line"/>
      <point x="132" y="384" type="line"/>
      <point x="164" y="384" type="line"/>
      <point x="164" y="288" type="line"/>
      <point x="196" y="288" type="line"/>
      <point x="196" y="192" type="line"/>
      <point x="228" y="192" type="line"/>
      <point x="228" y="160" type="line"/>
      <point x="260" y="160" type="line"/>
      <point x="260" y="288" type="line"/>
      <point x="292" y="288" type="line"/>
      <point x="292" y="384" type="line"/>
      <point x="324" y="384" type="line"/>
      <point x="324" y="480" type="line"/>
      <point x="420" y="480" type="line"/>
      <point x="420" y="384" type="line"/>
      <point x="388" y="384" type="line"/>
      <point x="388" y="288" type="line"/>
      <point x="356" y="288" type="line"/>
      <point x="356" y="192" type="line"/>
      <point x="324" y="192" type="line"/>
      <point x="324" y="96" type="line"/>
      <point x="292" y="96" type="line"/>
      <point x="292" y="0" type="line"/>
      <point x="260" y="0" type="line"/>
      <point x="260" y="-96" type="line"/>
      <point x="228" y="-96" type="line"/>
      <point x="228" y="-192" type="line"/>
    </contour>
    <contour>
      <point x="164" y="544" type="line"/>
      <point x="164" y="576" type="line"/>
      <point x="196" y="576" type="line"/>
      <point x="196" y="608" type="line"/>
      <point x="228" y="608" type="line"/>
      <point x="228" y="640" type="line"/>
      <point x="324" y="640" type="line"/>
      <point x="324" y="608" type="line"/>
      <point x="292" y="608" type="line"/>
      <point x="292" y="576" type="line"/>
      <point x="260" y="576" type="line"/>
      <point x="260" y="544" type="line"/>
    </contour>
  </outline>
</glyph>
<glyph name="quotereversed" format="2">
  <advance width="187"/>
  <unicode hex="201B"/>
  <outline>
    <contour>
      <point x="64" y="448" type="line"/>
      <point x="64" y="480" type="line"/>
      <point x="32" y="480" type="line"/>
      <point x="32" y="640" type="line"/>
      <point x="128" y="640" type="line"/>
      <point x="128" y="544" type="line"/>
      <point x="64" y="544" type="line"/>
      <point x="64" y="512" type="line"/>
      <point x="96" y="512" type="line"/>
      <point x="96" y="480" type="line"/>
      <point x="128" y="480" type="line"/>
      <point x="128" y="448" type="line"/>
    </contour>
  </outline>
</glyph>
<glyph name="Euro" format="2">
  <advance width="717"/>
  <unicode hex="20AC"/>
  <outline>
    <contour>
      <point x="321" y="0" type="line"/>
      <point x="321" y="32" type="line"/>
      <point x="225" y="32" type="line"/>
      <point x="225" y="64" type="line"/>
      <point x="193" y="64" type="line"/>
      <point x="193" y="96" type="line"/>
      <point x="161" y="96" type="line"/>
      <point x="161" y="128" type="line"/>
      <point x="129" y="128" type="line"/>
      <point x="129" y="192" type="line"/>
      <point x="97" y="192" type="line"/>
      <point x="97" y="224" type="line"/>
      <point x="33" y="224" type="line"/>
      <point x="33" y="288" type="line"/>
      <point x="97" y="288" type="line"/>
      <point x="97" y="352" type="line"/>
      <point x="33" y="352" type="line"/>
      <point x="33" y="416" type="line"/>
      <point x="97" y="416" type="line"/>
      <point x="97" y="448" type="line"/>
      <point x="129" y="448" type="line"/>
      <point x="129" y="512" type="line"/>
      <point x="161" y="512" type="line"/>
      <point x="161" y="544" type="line"/>
      <point x="193" y="544" type="line"/>
      <point x="193" y="576" type="line"/>
      <point x="225" y="576" type="line"/>
      <point x="225" y="608" type="line"/>
      <point x="321" y="608" type="line"/>
      <point x="321" y="640" type="line"/>
      <point x="481" y="640" type="line"/>
      <point x="481" y="608" type="line"/>
      <point x="577" y="608" type="line"/>
      <point x="577" y="576" type="line"/>
      <point x="609" y="576" type="line"/>
      <point x="609" y="512" type="line"/>
      <point x="641" y="512" type="line"/>
      <point x="641" y="480" type="line"/>
      <point x="673" y="480" type="line"/>
      <point x="673" y="448" type="line"/>
      <point x="545" y="448" type="line"/>
      <point x="545" y="480" type="line"/>
      <point x="513" y="480" type="line"/>
      <point x="513" y="512" type="line"/>
      <point x="449" y="512" type="line"/>
      <point x="449" y="544" type="line"/>
      <point x="353" y="544" type="line"/>
      <point x="353" y="512" type="line"/>
      <point x="289" y="512" type="line"/>
      <point x="289" y="480" type="line"/>
      <point x="257" y="480" type="line"/>
      <point x="257" y="448" type="line"/>
      <point x="225" y="448" type="line"/>
      <point x="225" y="416" type="line"/>
      <point x="481" y="416" type="line"/>
      <point x="481" y="352" type="line"/>
      <point x="193" y="352" type="line"/>
      <point x="193" y="288" type="line"/>
      <point x="481" y="288" type="line"/>
      <point x="481" y="224" type="line"/>
      <point x="225" y="224" type="line"/>
      <point x="225" y="192" type="line"/>
      <point x="257" y="192" type="line"/>
      <point x="257" y="160" type="line"/>
      <point x="289" y="160" type="line"/>
      <point x="289" y="128" type="line"/>
      <point x="353" y="128" type="line"/>
      <point x="353" y="96" type="line"/>
      <point x="449" y="96" type="line"/>
      <point x="449" y="128" type="line"/>
      <point x="513" y="128" type="line"/>
      <point x="513" y="160" type="line"/>
      <point x="545" y="160" type="line"/>
      <point x="545" y="192" type="line"/>
      <point x="673" y="192" type="line"/>
      <point x="673" y="160" type="line"/>
      <point x="641" y="160" type="line"/>
      <point x="641" y="128" type="line"/>
      <point x="609" y="128" type="line"/>
      <point x="609" y="64" type="line"/>
      <point x="577" y="64" type="line"/>
      <point x="577" y="32" type="line"/>
      <point x="481" y="32" type="line"/>
      <point x="481" y="0" type="line"/>
    </contour>
  </outline>
</glyph>
<glyph name=".notdef" format="1">
  <advance width="756"/>
  <outline>
    <contour>
      <point x="377" y="90" type="line"/>
      <point x="377" y="192" type="line"/>
      <point x="275" y="192" type="line"/>
      <point x="275" y="90" type="line"/>
    </contour>
    <contour>
      <point x="478" y="209" type="line"/>
      <point x="478" y="311" type="line"/>
      <point x="275" y="311" type="line"/>
      <point x="275" y="209" type="line"/>
    </contour>
    <contour>
      <point x="377" y="328" type="line"/>
      <point x="377" y="430" type="line"/>
      <point x="275" y="430" type="line"/>
      <point x="275" y="328" type="line"/>
    </contour>
    <contour>
      <point x="478" y="447" type="line"/>
      <point x="478" y="548" type="line"/>
      <point x="377" y="548" type="line" smooth="yes"/>
      <point x="348" y="548"/>
      <point x="324" y="538"/>
      <point x="305" y="519" type="curve" smooth="yes"/>
      <point x="285" y="498"/>
      <point x="275" y="474"/>
      <point x="275" y="447" type="curve"/>
    </contour>
    <contour>
      <point x="57" y="0" type="line"/>
      <point x="57" y="640" type="line"/>
      <point x="697" y="640" type="line"/>
      <point x="697" y="0" type="line"/>
    </contour>
  </outline>
</glyph>
<glyph name=".notdef" format="2">
  <advance width="756"/>
  <outline>
    <contour>
      <point x="377" y="90" type="line"/>
      <point x="377" y="192" type="line"/>
      <point x="275" y="192" type="line"/>
      <point x="275" y="90" type="line"/>
    </contour>
    <contour>
      <point x="478" y="209" type="line"/>
      <point x="478" y="311" type="line"/>
      <point x="275" y="311" type="line"/>
      <point x="275" y="209" type="line"/>
    </contour>
    <contour>
      <point x="377" y="328" type="line"/>
      <point x="377" y="430" type="line"/>
      <point x="275" y="430" type="line"/>
      <point x="275" y="328" type="line"/>
    </contour>
    <contour>
      <point x="478" y="447" type="line"/>
      <point x="478" y="548" type="line"/>
      <point x="377" y="548" type="line" smooth="yes"/>
      <point x="348.19" y="548.0" name="inserted"/>
      <point x="324.43" y="538.43"/>
      <point x="305" y="519" type="curve" smooth="yes"/>
      <point x="284.9" y="498.23" name="inserted"/>
      <point x="275.0" y="474.47"/>
      <point x="275" y="447" type="curve"/>
    </contour>
    <contour>
      <point x="57" y="0" type="line"/>
      <point x="57" y="640" type="line"/>
      <point x="697" y="640" type="line"/>
      <point x="697" y="0" type="line"/>
    </contour>
  </outline>
</glyph>
<glyph name="pixel" format="1">
  <advance width="32"/>
  <outline>
    <contour>
      <point x="19" y="16" type="curve"/>
      <point x="19" y="14"/>
      <point x="18" y="13"/>
      <point x="16" y="13" type="curve"/>
      <point x="16" y="13" type="line"/>
      <point x="14" y="13"/>
      <point x="13" y="14"/>
      <point x="13" y="16" type="curve"/>
      <point x="13" y="16" type="line"/>
      <point x="13" y="18"/>
      <point x="14" y="19"/>
      <point x="16" y="19" type="curve"/>
      <point x="16" y="19" type="line"/>
      <point x="18" y="19"/>
      <point x="19" y="18"/>
    </contour>
    <contour>
      <point x="16" y="16" type="curve"/>
      <point x="16" y="16"/>
      <point x="16" y="16"/>
      <point x="16" y="16" type="curve"/>
      <point x="16" y="16"/>
      <point x="16" y="16"/>
      <point x="16" y="16" type="curve"/>
      <point x="16" y="16"/>
      <point x="16" y="16"/>
      <point x="16" y="16" type="curve"/>
      <point x="16" y="16"/>
      <point x="16" y="16"/>
    </contour>
  </outline>
</glyph>
